<svg version="1.0" xmlns="http://www.w3.org/2000/svg" viewBox="0 0 512 512">
	<path d="M232.5 21.1c-45.2 4.6-85.2 20.5-122 48.2-11.1 8.4-34.7 32.2-43.3 43.7-19.8 26.6-32.9 53.7-40.7 84.4-5.4 21.2-6.9 34.2-6.9 58.1s1.5 36.9 6.9 58.1c7.8 30.7 20.9 57.8 40.7 84.4 9.1 12.2 32.6 35.7 44.8 44.8 33.2 24.7 68.8 39.6 109.5 45.8 16.8 2.5 49.5 2.5 66 0 41-6.3 76.2-21 109.5-45.8 12.2-9.1 35.7-32.6 44.8-44.8 24.8-33.3 39.5-68.5 45.8-109.5 2.5-16.5 2.5-49.2 0-66-6.2-40.7-21.1-76.3-45.8-109.5-9.1-12.2-32.6-35.7-44.8-44.8-33.1-24.6-69.5-39.9-109-45.7-13.7-2-42.9-2.7-55.5-1.4zm55.7 11.3c37.5 6 71.2 20.2 101.8 42.9 12.2 9.1 35.6 32.5 44.7 44.7 39.8 53.7 54.1 120.3 39.7 184.9-12.7 56.7-46.9 106.3-95.5 138.6-54.7 36.4-122.8 46.6-186.5 28.1C96.3 443.6 30 355.2 30 255c0-49.4 17-99 47.2-138.2 36.6-47.3 91.7-78.3 152.3-85.7 11.1-1.4 46.9-.5 58.7 1.3z"/>
	<path d="M297.8 258.7 254 302.5l-43.3-43.3C187 235.5 167 216 166.4 216c-.5 0-2.3 1.3-3.9 3l-2.9 3 47 47.3 46.9 47.3 48-47.7 47.9-47.8-2.9-3.1c-1.6-1.6-3.4-3-3.9-3-.6 0-20.8 19.7-44.8 43.7z"/>
</svg>